/* XPM */
static char *lyslogo[] = {
/* width height num_colors chars_per_pixel */
"    91    91        3            1",
/* colors */
". c #000000",
"# c #fff600",
"a c #a8a8a8",
/* pixels */
"aaaaaaaaaaaaaaaaaaaaaaaaaaaaaaaaaaaaaaaaaaaaaaaaaaaaaaaaaaaaaaaaaaaaaaaaaaaaaaaaaaaaaaaaaaa",
"aaaaaaaaaaaaaaaaaaaaaaaaaaaaaaaaaaaa...................aaaaaaaaaaaaaaaaaaaaaaaaaaaaaaaaaaaa",
"aaaaaaaaaaaaaaaaaaaaaaaaaaaaaaaaa..........................aaaaaaaaaaaaaaaaaaaaaaaaaaaaaaaa",
"aaaaaaaaaaaaaaaaaaaaaaaaaaaaaa..............#..#..............aaaaaaaaaaaaaaaaaaaaaaaaaaaaa",
"aaaaaaaaaaaaaaaaaaaaaaaaaaa.................#..#.................aaaaaaaaaaaaaaaaaaaaaaaaaa",
"aaaaaaaaaaaaaaaaaaaaaaaaa.........##........##.#.......####........aaaaaaaaaaaaaaaaaaaaaaaa",
"aaaaaaaaaaaaaaaaaaaaaaa............#........#.##......##..#..........aaaaaaaaaaaaaaaaaaaaaa",
"aaaaaaaaaaaaaaaaaaaaaa.............#........#.##......#...............aaaaaaaaaaaaaaaaaaaaa",
"aaaaaaaaaaaaaaaaaaaa...............##.......#..#......#..##.............aaaaaaaaaaaaaaaaaaa",
"aaaaaaaaaaaaaaaaaaa......###........#.................####...............aaaaaaaaaaaaaaaaaa",
"aaaaaaaaaaaaaaaaa.......#..#........#....................#.................aaaaaaaaaaaaaaaa",
"aaaaaaaaaaaaaaaa........##.#................................................aaaaaaaaaaaaaaa",
"aaaaaaaaaaaaaaa..........##..................................................aaaaaaaaaaaaaa",
"aaaaaaaaaaaaaa............#...................................................aaaaaaaaaaaaa",
"aaaaaaaaaaaaa..............#...................................................aaaaaaaaaaaa",
"aaaaaaaaaaaa...#................................................................aaaaaaaaaaa",
"aaaaaaaaaaa...####...............................................................aaaaaaaaaa",
"aaaaaaaaaa.....##.##............#############################################.....aaaaaaaaa",
"aaaaaaaaaa.....#...#.........################################################.....aaaaaaaaa",
"aaaaaaaaa......##..##......##################################################......aaaaaaaa",
"aaaaaaaa........####......###################.........................####..........aaaaaaa",
"aaaaaaa..........##......##################..........#................###............aaaaaa",
"aaaaaaa.................####..############...........##..............###.............aaaaaa",
"aaaaaa..................####..############...........###.............###..............aaaaa",
"aaaaaa...#..............####..###########............###.............##...............aaaaa",
"aaaaa....#..............####..###########............###.............##................aaaa",
"aaaaa.....####..........####..###########............###.............##................aaaa",
"aaaa....#####...........####..###########............###............###.................aaa",
"aaaa......##............####..###########............###............###.................aaa",
"aaa.........#...........####..###########............#####..........###..................aa",
"aaa.....................####..###########...........#######.........###..................aa",
"aaa.....................####.........####..........#####.###........###..................aa",
"aa......................####.........####..........#####..##........###...................a",
"aa......................#################.........##.###..##........###...................a",
"aa......................#################........###.###..###.......###...................a",
"aa......................####...###...####........##..###...##.......###....................",
"a...####................#####..###..#####...#######################.###....................",
"a......###..............#####..##..######..#######################..###....................",
"a....###................######..#..######.#######################...###............#.......",
"a...###.................######....#######.......##...###..##........###............######..",
"a......###..............#######...#######.......##...###..##........###..............##....",
"a.......................#######..########.......##...###.##.........###............##......",
"a.......................#######..########.......##...######.........###....................",
"........................#######..########.......###..#####..........###....................",
"........................#######..########........##..####...........###....................",
"........................#######..########........#######............###....................",
"........................#################..........#####............###....................",
"...######...............#################............###............###....................",
"a.......................######......#####............###............###.............#......",
"a.......................#####........####............###............###.............##.....",
"a.......................####...#####.####............###............###.............#.####.",
"a.......................####...#########..............##............###.............#......",
"a.......................#####.......####..............##...........####....................",
"a.......................######.......##................#..........#####....................",
"a.......##..............###########..##..........................######....................",
"a........#..............####..#####..#........................#########....................",
"aa.......#..............####.........##################################....................",
"aa.....###..............#####.......###################################...........#.......a",
"aa...###................###############################################............###....a",
"aaa.....................###############################################...............##..a",
"aaa.....................######.....###........###.....####.......######..................aa",
"aaa.....................#####.......##........##.......###........#####..................aa",
"aaa.....................####...###...####..####...###...##..####..#####..................aa",
"aaaa....................####..#####..####..####..#####..##..####..#####.................aaa",
"aaaa....................####..#####..####..####..#####..##........#####.........#.......aaa",
"aaaaa...................####.........####..####..#####..##.......######.......###......aaaa",
"aaaaa...................####.........####..####..#####..##..#...#######.......#.####...aaaa",
"aaaaaa..................####..#####..####..####..#####..##..##...######.......###..#..aaaaa",
"aaaaaa.................#####..#####..####..####...###...##..###...#####..........##...aaaaa",
"aaaaaaa................#####..#####..####..#####.......###..####..####...........#...aaaaaa",
"aaaaaaa...............######..#####..####..######.....####..#####.####...............aaaaaa",
"aaaaaaaa.............################################################...............aaaaaaa",
"aaaaaaaaa..........#################################################...............aaaaaaaa",
"aaaaaaaaaa........#################################################.....###.......aaaaaaaaa",
"aaaaaaaaaaa.......##############################################.......#..#.......aaaaaaaaa",
"aaaaaaaaaaa............................................................##.##.....aaaaaaaaaa",
"aaaaaaaaaaaa............................................................##..#...aaaaaaaaaaa",
"aaaaaaaaaaaaa............................................................##....aaaaaaaaaaaa",
"aaaaaaaaaaaaaa............................................................#...aaaaaaaaaaaaa",
"aaaaaaaaaaaaaaa...........#.....................................##...........aaaaaaaaaaaaaa",
"aaaaaaaaaaaaaaaa.........##....................................##...........aaaaaaaaaaaaaaa",
"aaaaaaaaaaaaaaaaaa.......#..#...................................###.......aaaaaaaaaaaaaaaaa",
"aaaaaaaaaaaaaaaaaaa.....##..#......#............................##..#....aaaaaaaaaaaaaaaaaa",
"aaaaaaaaaaaaaaaaaaaa....##.#.......#..#.................#........#.#....aaaaaaaaaaaaaaaaaaa",
"aaaaaaaaaaaaaaaaaaaaaa...###......###.#.......#......##.#........##...aaaaaaaaaaaaaaaaaaaaa",
"aaaaaaaaaaaaaaaaaaaaaaaa..........#.##........#.......#.#...........aaaaaaaaaaaaaaaaaaaaaaa",
"aaaaaaaaaaaaaaaaaaaaaaaaa........##.##........#.......###..........aaaaaaaaaaaaaaaaaaaaaaaa",
"aaaaaaaaaaaaaaaaaaaaaaaaaaa......#..#.........#........##........aaaaaaaaaaaaaaaaaaaaaaaaaa",
"aaaaaaaaaaaaaaaaaaaaaaaaaaaaaa......#.........#.........#.....aaaaaaaaaaaaaaaaaaaaaaaaaaaaa",
"aaaaaaaaaaaaaaaaaaaaaaaaaaaaaaaaa.............#............aaaaaaaaaaaaaaaaaaaaaaaaaaaaaaaa",
"aaaaaaaaaaaaaaaaaaaaaaaaaaaaaaaaaaaa....................aaaaaaaaaaaaaaaaaaaaaaaaaaaaaaaaaaa"
};
